<svg xmlns="http://www.w3.org/2000/svg" viewBox="0 0 145.7 68">
<!-- SVG created with Arrow, by QuiverAI (https://quiver.ai) -->
  <style type="text/css">.cls-0 {fill:#111111;}</style>
  <path class="cls-0" d="m9.1 50.3c-4.6-0.2-7.8-3.3-7.8-8.1v-14.1c0-4.6 3.1-8 7.8-8.2h14.9c0.8 0.1 1.4 0.6 1.4 1.5v3.8l-0.4 0.3h-15.5c-1.4 0-2.7 0.9-2.7 2.6v13.8c-0.1 1.8 1 2.8 2.6 2.9h15.6 0.3l0.1-0.1v4.3c0 0.6-0.5 1.3-1.3 1.3h-15z"/>
  <path class="cls-0" d="m36.5 16.7h-5.7c-0.7 0-1.4 0.5-1.4 1.4v5.6c0 0.7 0.6 1.5 1.4 1.5h5.6c0.9 0.1 1.5-0.6 1.5-1.4v-5.7c0-0.8-0.5-1.4-1.4-1.4z"/>
  <path class="cls-0" d="m37.2 42.8h-5.6c-0.8 0-1.5 0.6-1.5 1.4v5.5c0 0.7 0.5 1.2 1.2 1.3h5.9c0.8 0 1.4-0.6 1.4-1.3v-5.5c0-0.7-0.7-1.4-1.4-1.4z"/>
  <path class="cls-0" d="m47 28.7h-5.6c-0.7 0-1.4 0.6-1.4 1.6v5.4c-0.1 0.9 0.5 1.5 1.4 1.5h5.6c0.8 0.1 1.5-0.5 1.5-1.4v-5.6c0-0.8-0.6-1.5-1.5-1.5z"/>
  <path class="cls-0" d="m26.9 28.6c-0.7 0.1-1.5 0.6-1.4 1.6v7.8c0 0.9 0.6 1.6 1.4 1.5h8.3c0.7 0.1 1.4-0.6 1.4-1.4v-7.9c0-0.8-0.7-1.6-1.5-1.6h-8.2z"/>
  <path class="cls-0" d="m57.5 35.6c0-4.7 3.3-8.8 8.8-8.8s8.4 4.1 8.4 8.8-3 8.7-8.5 8.7-8.7-3.9-8.7-8.7zm14.4 0c0-3.3-2.1-6.3-5.7-6.3s-5.9 2.7-5.9 6.2c0 3.4 2.2 6.2 5.8 6.2 3.8 0 5.8-2.7 5.8-6.1z"/>
  <path class="cls-0" d="m89.5 38c0 3.7-2.1 6.3-6 6.3-1.6 0-3-0.6-4.2-1.9v6.2h-2.7v-16.7h2.6v1.8c0.9-1.3 2.4-2.1 4.4-2.1 3.3 0.1 5.9 2.5 5.9 6.3zm-2.6 0c0.1-2.2-1.4-4-3.6-4s-4.1 1.5-4.1 4 1.7 3.9 4 3.9c2 0 3.7-1.4 3.7-3.9z"/>
  <path class="cls-0" d="m103.2 38.7h-8.9c0.1 2.2 1.9 3.3 3.7 3.4 1.3 0 2.4-0.5 2.4-0.6l0.2-0.2 0.2-0.3 0.1-0.2 0.2-0.5 1.9 0.3v0.1l-0.1 0.3c-0.9 2-2.7 3.3-5.4 3.3-4.1 0-6.4-2.5-6.4-6.4 0-3.4 2.4-6.3 6.3-6.3 3.5 0 5.9 2.5 5.9 6v1.1zm-9.3-1.9h6.7c0-1.5-1.1-2.9-3.2-2.9s-3.4 1.4-3.5 2.9z"/>
  <path class="cls-0" d="m116.7 36.8v7.2h-2.6v-7c0-2-1.2-3-2.7-3-2.4 0-3.3 1.6-3.3 3.3v6.6h-2.9v-12h2.9v1.7c1-1.5 2.6-2 4.2-2 2.7 0 4.4 1.7 4.4 5.2z"/>
  <path class="cls-0" d="m122.5 29.6v4.8h7.7v2.6h-7.7v7h-3v-16.9h11.7v2.5h-8.7z"/>
  <path class="cls-0" d="m132.3 39.2 2.6-0.2c0.2 2 1.8 2.8 3.7 2.8 1.6 0 3.2-0.8 3.2-2.4s-1.2-2.2-3-2.5l-0.9-0.2c-2.9-0.7-5.1-1.5-5.1-4.8 0-3 2.5-5.1 5.8-5.1 3.4 0 5.3 1.6 5.6 4.5l-2.6 0.3c-0.2-1.6-1.7-2.4-3.1-2.4-1.8 0-3.1 0.9-3.1 2.3 0 1.5 0.9 2 2.8 2.4l0.9 0.2c2.9 0.7 5.4 1.5 5.4 5.2 0 3-2.3 5-5.9 5-3.6 0.1-6.1-1.6-6.3-5.1z"/>
</svg>