<svg width="83" height="61" viewBox="0 0 83 61" fill="none" xmlns="http://www.w3.org/2000/svg">
<path d="M13.6831 58.9424C5.61357 58.5916 0 53.1534 0 44.7331V19.9983C0 11.9288 5.43815 5.96437 13.6831 5.61353H39.8213C41.2246 5.78895 42.2772 6.66607 42.2772 8.24489V14.911L41.5755 15.4373H14.3848C11.9288 15.4373 9.64832 17.0161 9.64832 19.9983V44.2068C9.4729 47.3644 11.4026 49.1187 14.2093 49.2941H41.5755H42.1018L42.2772 49.1187V56.6619C42.2772 57.7145 41.4001 58.9424 39.9967 58.9424H13.6831Z" fill="#111111"/>
<path d="M61.7492 0H51.75C50.522 0 49.2941 0.877119 49.2941 2.45594V12.2797C49.2941 13.5076 50.3466 14.911 51.75 14.911H61.5738C63.1526 15.0865 64.2051 13.8585 64.2051 12.4551V2.45594C64.2051 1.05254 63.328 0 61.7492 0Z" fill="#111111"/>
<path d="M62.9771 45.7856H53.1533C51.7499 45.7856 50.522 46.8382 50.522 48.2416V57.8899C50.522 59.1178 51.3991 59.995 52.6271 60.1704H62.9771C64.3805 60.1704 65.433 59.1178 65.433 57.8899V48.2416C65.433 47.0136 64.205 45.7856 62.9771 45.7856Z" fill="#111111"/>
<path d="M80.1687 21.0509H70.345C69.117 21.0509 67.8891 22.1034 67.8891 23.8577V33.3306C67.7136 34.9094 68.7662 35.9619 70.345 35.9619H80.1687C81.5721 36.1373 82.8001 35.0848 82.8001 33.506V23.6822C82.8001 22.2788 81.7476 21.0509 80.1687 21.0509Z" fill="#111111"/>
<path d="M44.9084 20.8755C43.6804 21.0509 42.277 21.928 42.4524 23.6822V37.3653C42.4524 38.9441 43.505 40.1721 44.9084 39.9967H59.4686C60.6965 40.1721 61.9245 38.9441 61.9245 37.5407V23.6822C61.9245 22.2789 60.6965 20.8755 59.2931 20.8755H44.9084Z" fill="#111111"/>
</svg>
